<svg width="266" height="32" viewBox="0 0 266 32" fill="none" xmlns="http://www.w3.org/2000/svg">
<path d="M72.5859 22V10.5469H76.5312C77.4219 10.5469 78.1016 10.6016 78.5703 10.7109C79.2266 10.862 79.7865 11.1354 80.25 11.5312C80.8542 12.0417 81.3047 12.6953 81.6016 13.4922C81.9036 14.2839 82.0547 15.1901 82.0547 16.2109C82.0547 17.0807 81.9531 17.8516 81.75 18.5234C81.5469 19.1953 81.2865 19.7526 80.9688 20.1953C80.651 20.6328 80.3021 20.9792 79.9219 21.2344C79.5469 21.4844 79.0911 21.6745 78.5547 21.8047C78.0234 21.9349 77.4115 22 76.7188 22H72.5859ZM74.1016 20.6484H76.5469C77.3021 20.6484 77.8932 20.5781 78.3203 20.4375C78.7526 20.2969 79.0964 20.099 79.3516 19.8438C79.7109 19.4844 79.9896 19.0026 80.1875 18.3984C80.3906 17.7891 80.4922 17.0521 80.4922 16.1875C80.4922 14.9896 80.2943 14.0703 79.8984 13.4297C79.5078 12.7839 79.0312 12.3516 78.4688 12.1328C78.0625 11.9766 77.4089 11.8984 76.5078 11.8984H74.1016V20.6484ZM89.6484 19.3281L91.1016 19.5078C90.8724 20.3568 90.4479 21.0156 89.8281 21.4844C89.2083 21.9531 88.4167 22.1875 87.4531 22.1875C86.2396 22.1875 85.276 21.8151 84.5625 21.0703C83.8542 20.3203 83.5 19.2708 83.5 17.9219C83.5 16.526 83.8594 15.4427 84.5781 14.6719C85.2969 13.901 86.2292 13.5156 87.375 13.5156C88.4844 13.5156 89.3906 13.8932 90.0938 14.6484C90.7969 15.4036 91.1484 16.4661 91.1484 17.8359C91.1484 17.9193 91.1458 18.0443 91.1406 18.2109H84.9531C85.0052 19.1224 85.263 19.8203 85.7266 20.3047C86.1901 20.7891 86.7682 21.0312 87.4609 21.0312C87.9766 21.0312 88.4167 20.8958 88.7812 20.625C89.1458 20.3542 89.4349 19.9219 89.6484 19.3281ZM85.0312 17.0547H89.6641C89.6016 16.3568 89.4245 15.8333 89.1328 15.4844C88.6849 14.9427 88.1042 14.6719 87.3906 14.6719C86.7448 14.6719 86.2005 14.888 85.7578 15.3203C85.3203 15.7526 85.0781 16.3307 85.0312 17.0547ZM92.8438 22V10.5469H94.25V22H92.8438ZM102.117 19.3281L103.57 19.5078C103.341 20.3568 102.917 21.0156 102.297 21.4844C101.677 21.9531 100.885 22.1875 99.9219 22.1875C98.7083 22.1875 97.7448 21.8151 97.0312 21.0703C96.3229 20.3203 95.9688 19.2708 95.9688 17.9219C95.9688 16.526 96.3281 15.4427 97.0469 14.6719C97.7656 13.901 98.6979 13.5156 99.8438 13.5156C100.953 13.5156 101.859 13.8932 102.562 14.6484C103.266 15.4036 103.617 16.4661 103.617 17.8359C103.617 17.9193 103.615 18.0443 103.609 18.2109H97.4219C97.474 19.1224 97.7318 19.8203 98.1953 20.3047C98.6589 20.7891 99.237 21.0312 99.9297 21.0312C100.445 21.0312 100.885 20.8958 101.25 20.625C101.615 20.3542 101.904 19.9219 102.117 19.3281ZM97.5 17.0547H102.133C102.07 16.3568 101.893 15.8333 101.602 15.4844C101.154 14.9427 100.573 14.6719 99.8594 14.6719C99.2135 14.6719 98.6693 14.888 98.2266 15.3203C97.7891 15.7526 97.5469 16.3307 97.5 17.0547ZM108.414 20.7422L108.617 21.9844C108.221 22.0677 107.867 22.1094 107.555 22.1094C107.044 22.1094 106.648 22.0286 106.367 21.8672C106.086 21.7057 105.888 21.4948 105.773 21.2344C105.659 20.9688 105.602 20.4141 105.602 19.5703V14.7969H104.57V13.7031H105.602V11.6484L107 10.8047V13.7031H108.414V14.7969H107V19.6484C107 20.0495 107.023 20.3073 107.07 20.4219C107.122 20.5365 107.203 20.6276 107.312 20.6953C107.427 20.763 107.589 20.7969 107.797 20.7969C107.953 20.7969 108.159 20.7786 108.414 20.7422ZM115.477 19.3281L116.93 19.5078C116.701 20.3568 116.276 21.0156 115.656 21.4844C115.036 21.9531 114.245 22.1875 113.281 22.1875C112.068 22.1875 111.104 21.8151 110.391 21.0703C109.682 20.3203 109.328 19.2708 109.328 17.9219C109.328 16.526 109.688 15.4427 110.406 14.6719C111.125 13.901 112.057 13.5156 113.203 13.5156C114.312 13.5156 115.219 13.8932 115.922 14.6484C116.625 15.4036 116.977 16.4661 116.977 17.8359C116.977 17.9193 116.974 18.0443 116.969 18.2109H110.781C110.833 19.1224 111.091 19.8203 111.555 20.3047C112.018 20.7891 112.596 21.0312 113.289 21.0312C113.805 21.0312 114.245 20.8958 114.609 20.625C114.974 20.3542 115.263 19.9219 115.477 19.3281ZM110.859 17.0547H115.492C115.43 16.3568 115.253 15.8333 114.961 15.4844C114.513 14.9427 113.932 14.6719 113.219 14.6719C112.573 14.6719 112.029 14.888 111.586 15.3203C111.148 15.7526 110.906 16.3307 110.859 17.0547Z" fill="#FF7272"/>
<path d="M167.453 22V10.5469H172.531C173.552 10.5469 174.328 10.651 174.859 10.8594C175.391 11.0625 175.815 11.4245 176.133 11.9453C176.451 12.4661 176.609 13.0417 176.609 13.6719C176.609 14.4844 176.346 15.1693 175.82 15.7266C175.294 16.2839 174.482 16.638 173.383 16.7891C173.784 16.9818 174.089 17.1719 174.297 17.3594C174.74 17.7656 175.159 18.2734 175.555 18.8828L177.547 22H175.641L174.125 19.6172C173.682 18.9297 173.318 18.4036 173.031 18.0391C172.745 17.6745 172.487 17.4193 172.258 17.2734C172.034 17.1276 171.805 17.026 171.57 16.9688C171.398 16.9323 171.117 16.9141 170.727 16.9141H168.969V22H167.453ZM168.969 15.6016H172.227C172.919 15.6016 173.461 15.5312 173.852 15.3906C174.242 15.2448 174.539 15.0156 174.742 14.7031C174.945 14.3854 175.047 14.0417 175.047 13.6719C175.047 13.1302 174.849 12.6849 174.453 12.3359C174.062 11.987 173.443 11.8125 172.594 11.8125H168.969V15.6016ZM184.492 19.3281L185.945 19.5078C185.716 20.3568 185.292 21.0156 184.672 21.4844C184.052 21.9531 183.26 22.1875 182.297 22.1875C181.083 22.1875 180.12 21.8151 179.406 21.0703C178.698 20.3203 178.344 19.2708 178.344 17.9219C178.344 16.526 178.703 15.4427 179.422 14.6719C180.141 13.901 181.073 13.5156 182.219 13.5156C183.328 13.5156 184.234 13.8932 184.938 14.6484C185.641 15.4036 185.992 16.4661 185.992 17.8359C185.992 17.9193 185.99 18.0443 185.984 18.2109H179.797C179.849 19.1224 180.107 19.8203 180.57 20.3047C181.034 20.7891 181.612 21.0312 182.305 21.0312C182.82 21.0312 183.26 20.8958 183.625 20.625C183.99 20.3542 184.279 19.9219 184.492 19.3281ZM179.875 17.0547H184.508C184.445 16.3568 184.268 15.8333 183.977 15.4844C183.529 14.9427 182.948 14.6719 182.234 14.6719C181.589 14.6719 181.044 14.888 180.602 15.3203C180.164 15.7526 179.922 16.3307 179.875 17.0547ZM187.156 19.5234L188.547 19.3047C188.625 19.862 188.841 20.2891 189.195 20.5859C189.555 20.8828 190.055 21.0312 190.695 21.0312C191.341 21.0312 191.82 20.901 192.133 20.6406C192.445 20.375 192.602 20.0651 192.602 19.7109C192.602 19.3932 192.464 19.1432 192.188 18.9609C191.995 18.8359 191.516 18.6771 190.75 18.4844C189.719 18.224 189.003 18 188.602 17.8125C188.206 17.6198 187.904 17.3568 187.695 17.0234C187.492 16.6849 187.391 16.3125 187.391 15.9062C187.391 15.5365 187.474 15.1953 187.641 14.8828C187.812 14.5651 188.044 14.3021 188.336 14.0938C188.555 13.9323 188.852 13.7969 189.227 13.6875C189.607 13.5729 190.013 13.5156 190.445 13.5156C191.096 13.5156 191.667 13.6094 192.156 13.7969C192.651 13.9844 193.016 14.2396 193.25 14.5625C193.484 14.8802 193.646 15.3073 193.734 15.8438L192.359 16.0312C192.297 15.6042 192.115 15.2708 191.812 15.0312C191.516 14.7917 191.094 14.6719 190.547 14.6719C189.901 14.6719 189.44 14.7786 189.164 14.9922C188.888 15.2057 188.75 15.4557 188.75 15.7422C188.75 15.9245 188.807 16.0885 188.922 16.2344C189.036 16.3854 189.216 16.5104 189.461 16.6094C189.602 16.6615 190.016 16.7812 190.703 16.9688C191.698 17.2344 192.391 17.4531 192.781 17.625C193.177 17.7917 193.487 18.0365 193.711 18.3594C193.935 18.6823 194.047 19.0833 194.047 19.5625C194.047 20.0312 193.909 20.474 193.633 20.8906C193.362 21.3021 192.969 21.6224 192.453 21.8516C191.938 22.0755 191.354 22.1875 190.703 22.1875C189.625 22.1875 188.802 21.9635 188.234 21.5156C187.672 21.0677 187.312 20.4036 187.156 19.5234ZM198.789 20.7422L198.992 21.9844C198.596 22.0677 198.242 22.1094 197.93 22.1094C197.419 22.1094 197.023 22.0286 196.742 21.8672C196.461 21.7057 196.263 21.4948 196.148 21.2344C196.034 20.9688 195.977 20.4141 195.977 19.5703V14.7969H194.945V13.7031H195.977V11.6484L197.375 10.8047V13.7031H198.789V14.7969H197.375V19.6484C197.375 20.0495 197.398 20.3073 197.445 20.4219C197.497 20.5365 197.578 20.6276 197.688 20.6953C197.802 20.763 197.964 20.7969 198.172 20.7969C198.328 20.7969 198.534 20.7786 198.789 20.7422ZM205.586 20.9766C205.065 21.4193 204.562 21.7318 204.078 21.9141C203.599 22.0964 203.083 22.1875 202.531 22.1875C201.62 22.1875 200.919 21.9661 200.43 21.5234C199.94 21.0755 199.695 20.5052 199.695 19.8125C199.695 19.4062 199.786 19.0365 199.969 18.7031C200.156 18.3646 200.398 18.0938 200.695 17.8906C200.997 17.6875 201.336 17.5339 201.711 17.4297C201.987 17.3568 202.404 17.2865 202.961 17.2188C204.096 17.0833 204.932 16.9219 205.469 16.7344C205.474 16.5417 205.477 16.4193 205.477 16.3672C205.477 15.7943 205.344 15.3906 205.078 15.1562C204.719 14.8385 204.185 14.6797 203.477 14.6797C202.815 14.6797 202.326 14.7969 202.008 15.0312C201.695 15.2604 201.464 15.6693 201.312 16.2578L199.938 16.0703C200.062 15.4818 200.268 15.0078 200.555 14.6484C200.841 14.2839 201.255 14.0052 201.797 13.8125C202.339 13.6146 202.966 13.5156 203.68 13.5156C204.388 13.5156 204.964 13.599 205.406 13.7656C205.849 13.9323 206.174 14.1432 206.383 14.3984C206.591 14.6484 206.737 14.9661 206.82 15.3516C206.867 15.5911 206.891 16.0234 206.891 16.6484V18.5234C206.891 19.8307 206.919 20.6589 206.977 21.0078C207.039 21.3516 207.159 21.6823 207.336 22H205.867C205.721 21.7083 205.628 21.3672 205.586 20.9766ZM205.469 17.8359C204.958 18.0443 204.193 18.2214 203.172 18.3672C202.594 18.4505 202.185 18.5443 201.945 18.6484C201.706 18.7526 201.521 18.9062 201.391 19.1094C201.26 19.3073 201.195 19.5286 201.195 19.7734C201.195 20.1484 201.336 20.4609 201.617 20.7109C201.904 20.9609 202.32 21.0859 202.867 21.0859C203.409 21.0859 203.891 20.9688 204.312 20.7344C204.734 20.4948 205.044 20.1693 205.242 19.7578C205.393 19.4401 205.469 18.9714 205.469 18.3516V17.8359ZM209.062 22V13.7031H210.328V14.9609C210.651 14.3724 210.948 13.9844 211.219 13.7969C211.495 13.6094 211.797 13.5156 212.125 13.5156C212.599 13.5156 213.081 13.6667 213.57 13.9688L213.086 15.2734C212.742 15.0703 212.398 14.9688 212.055 14.9688C211.747 14.9688 211.471 15.0625 211.227 15.25C210.982 15.4323 210.807 15.6875 210.703 16.0156C210.547 16.5156 210.469 17.0625 210.469 17.6562V22H209.062ZM217.477 20.7422L217.68 21.9844C217.284 22.0677 216.93 22.1094 216.617 22.1094C216.107 22.1094 215.711 22.0286 215.43 21.8672C215.148 21.7057 214.951 21.4948 214.836 21.2344C214.721 20.9688 214.664 20.4141 214.664 19.5703V14.7969H213.633V13.7031H214.664V11.6484L216.062 10.8047V13.7031H217.477V14.7969H216.062V19.6484C216.062 20.0495 216.086 20.3073 216.133 20.4219C216.185 20.5365 216.266 20.6276 216.375 20.6953C216.49 20.763 216.651 20.7969 216.859 20.7969C217.016 20.7969 217.221 20.7786 217.477 20.7422Z" fill="#232323"/>
<line x1="-2.18557e-08" y1="0.75" x2="266" y2="0.749977" stroke="#C1C1C1" stroke-width="0.5"/>
<path d="M62.4167 10.3077H59.5V9.73077C59.4981 9.27233 59.3131 8.8332 58.9853 8.50903C58.6575 8.18486 58.2135 8.0019 57.75 8H54.25C53.7865 8.0019 53.3425 8.18486 53.0147 8.50903C52.6869 8.8332 52.5019 9.27233 52.5 9.73077V10.3077H49.5833C49.4286 10.3077 49.2803 10.3685 49.1709 10.4767C49.0615 10.5849 49 10.7316 49 10.8846C49 11.0376 49.0615 11.1844 49.1709 11.2926C49.2803 11.4008 49.4286 11.4615 49.5833 11.4615H50.1667V21.8462C50.1667 22.1522 50.2896 22.4457 50.5084 22.662C50.7272 22.8784 51.0239 23 51.3333 23H60.6667C60.9761 23 61.2728 22.8784 61.4916 22.662C61.7104 22.4457 61.8333 22.1522 61.8333 21.8462V11.4615H62.4167C62.5714 11.4615 62.7198 11.4008 62.8291 11.2926C62.9385 11.1844 63 11.0376 63 10.8846C63 10.7316 62.9385 10.5849 62.8291 10.4767C62.7198 10.3685 62.5714 10.3077 62.4167 10.3077ZM53.6667 9.73077C53.6667 9.57776 53.7281 9.43102 53.8375 9.32282C53.9469 9.21463 54.0953 9.15385 54.25 9.15385H57.75C57.9047 9.15385 58.0531 9.21463 58.1625 9.32282C58.2719 9.43102 58.3333 9.57776 58.3333 9.73077V10.3077H53.6667V9.73077ZM60.6667 21.8462H51.3333V11.4615H60.6667V21.8462ZM54.8333 14.3462V18.9615C54.8333 19.1145 54.7719 19.2613 54.6625 19.3695C54.5531 19.4777 54.4047 19.5385 54.25 19.5385C54.0953 19.5385 53.9469 19.4777 53.8375 19.3695C53.7281 19.2613 53.6667 19.1145 53.6667 18.9615V14.3462C53.6667 14.1931 53.7281 14.0464 53.8375 13.9382C53.9469 13.83 54.0953 13.7692 54.25 13.7692C54.4047 13.7692 54.5531 13.83 54.6625 13.9382C54.7719 14.0464 54.8333 14.1931 54.8333 14.3462ZM58.3333 14.3462V18.9615C58.3333 19.1145 58.2719 19.2613 58.1625 19.3695C58.0531 19.4777 57.9047 19.5385 57.75 19.5385C57.5953 19.5385 57.4469 19.4777 57.3375 19.3695C57.2281 19.2613 57.1667 19.1145 57.1667 18.9615V14.3462C57.1667 14.1931 57.2281 14.0464 57.3375 13.9382C57.4469 13.83 57.5953 13.7692 57.75 13.7692C57.9047 13.7692 58.0531 13.83 58.1625 13.9382C58.2719 14.0464 58.3333 14.1931 58.3333 14.3462Z" fill="#FF7272"/>
<path d="M148.337 21.988C145.429 20.2023 144.186 16.5111 145.56 13.2751C147.073 9.70944 151.19 8.04584 154.756 9.55935C158.321 11.0729 159.985 15.1905 158.471 18.7561C157.905 20.0967 156.933 21.2267 155.693 21.988" stroke="black" stroke-width="1.5" stroke-linecap="round" stroke-linejoin="round"/>
<path d="M155.577 18.7852V21.8711C155.577 21.9827 155.621 22.0897 155.7 22.1686C155.779 22.2476 155.886 22.2919 155.997 22.2919H159.083M152.07 23.0003L152.077 22.9925" stroke="black" stroke-width="1.5" stroke-linecap="round" stroke-linejoin="round"/>
</svg>
