<svg width="1180" height="64" viewBox="0 0 1180 64" fill="none" xmlns="http://www.w3.org/2000/svg">
<g clip-path="url(#clip0_153_5643)">
<rect width="1180" height="64" fill="white"/>
<rect y="-4" width="17" height="72" fill="#327FDE"/>
<path d="M41.7218 43V19.2491H57.7448V22.0519H44.8648V29.4072H56.0112V32.21H44.8648V43H41.7218ZM57.3883 43L66.5096 19.2491H69.8956L79.6163 43H76.0359L73.2655 35.8067H63.3342L60.7258 43H57.3883ZM64.2414 33.2469H72.2934L69.8146 26.6692C69.0586 24.6711 68.4969 23.0294 68.1297 21.7441C67.8273 23.267 67.4007 24.7791 66.8498 26.2804L64.2414 33.2469ZM100.127 40.4564C101.585 41.4609 102.93 42.1953 104.161 42.6598L103.238 44.8469C101.531 44.2313 99.83 43.2592 98.1343 41.9307C96.3737 42.9136 94.4296 43.405 92.3019 43.405C90.1525 43.405 88.203 42.8866 86.4532 41.8497C84.7035 40.8128 83.3534 39.3547 82.4029 37.4754C81.4633 35.5961 80.9934 33.4791 80.9934 31.1245C80.9934 28.7808 81.4687 26.6476 82.4191 24.7251C83.3696 22.8025 84.7197 21.339 86.4694 20.3346C88.23 19.3301 90.1957 18.8279 92.3667 18.8279C94.5592 18.8279 96.5358 19.3517 98.2963 20.3994C100.057 21.4362 101.396 22.8943 102.314 24.7737C103.243 26.6422 103.707 28.7538 103.707 31.1083C103.707 33.0633 103.41 34.8238 102.816 36.3899C102.222 37.9452 101.326 39.3007 100.127 40.4564ZM93.2091 36.4385C95.0237 36.9462 96.5196 37.7022 97.6968 38.7067C99.5438 37.0218 100.467 34.489 100.467 31.1083C100.467 29.1858 100.138 27.5063 99.479 26.0698C98.8309 24.6333 97.8751 23.5208 96.6114 22.7323C95.3585 21.9331 93.949 21.5334 92.3829 21.5334C90.0391 21.5334 88.095 22.3381 86.5504 23.9474C85.0059 25.5459 84.2337 27.9383 84.2337 31.1245C84.2337 34.2136 84.9951 36.5843 86.518 38.2369C88.0517 39.8894 90.0067 40.7156 92.3829 40.7156C93.5061 40.7156 94.5646 40.505 95.5583 40.0838C94.5754 39.4465 93.5385 38.9929 92.4477 38.7229L93.2091 36.4385Z" fill="#327FDE"/>
<path d="M1124.42 28.0281L1126.56 26.0312L1136.5 35.2844L1146.44 26.0312L1148.58 28.0281L1136.5 39.2781L1124.42 28.0281Z" fill="#327FDE"/>
</g>
<rect x="0.5" y="0.5" width="1179" height="63" stroke="#327FDE"/>
<defs>
<clipPath id="clip0_153_5643">
<rect width="1180" height="64" fill="white"/>
</clipPath>
</defs>
</svg>
